<?xml version="1.0" encoding="UTF-8" standalone="no"?>
<!-- Created with Inkscape (http://www.inkscape.org/) -->
<svg width="18.154884mm" height="18.290051mm" viewBox="0 0 18.154884 18.290051" version="1.1" id="svg5" inkscape:version="1.1.1 (3bf5ae0d25, 2021-09-20)" xmlns:inkscape="http://www.inkscape.org/namespaces/inkscape" xmlns:sodipodi="http://sodipodi.sourceforge.net/DTD/sodipodi-0.dtd" xmlns="http://www.w3.org/2000/svg" xmlns:svg="http://www.w3.org/2000/svg">
  <sodipodi:namedview id="namedview7" pagecolor="#ffffff" bordercolor="#666666" borderopacity="1.0" inkscape:pageshadow="2" inkscape:pageopacity="0.0" inkscape:pagecheckerboard="0" inkscape:document-units="mm" showgrid="false" inkscape:zoom="5.8725028" inkscape:cx="57.215809" inkscape:cy="34.312457" inkscape:window-width="1920" inkscape:window-height="1009" inkscape:window-x="-8" inkscape:window-y="-8" inkscape:window-maximized="1" inkscape:current-layer="layer1" />
  <defs id="defs2" />
  <g inkscape:label="Ebene 1" inkscape:groupmode="layer" id="layer1" transform="translate(-26.391102,-26.391101)">
    <path d="m 34.57292,31.163828 v 0.454546 q 0,0.09943 -0.06392,0.163352 -0.06392,0.06392 -0.163353,0.06392 h -2.5 v 2.499999 q 0,0.09943 -0.06392,0.163353 -0.06392,0.06392 -0.163352,0.06392 h -0.454546 q -0.09943,0 -0.163352,-0.06392 -0.06392,-0.06392 -0.06392,-0.163353 v -2.499999 h -2.5 q -0.09943,0 -0.163353,-0.06392 -0.06392,-0.06392 -0.06392,-0.163352 v -0.454546 q 0,-0.09943 0.06392,-0.163352 0.06392,-0.06392 0.163353,-0.06392 h 2.5 v -2.5 q 0,-0.09943 0.06392,-0.163353 0.06392,-0.06392 0.163352,-0.06392 h 0.454546 q 0.09943,0 0.163352,0.06392 0.06392,0.06392 0.06392,0.163353 v 2.5 h 2.5 q 0.09943,0 0.163353,0.06392 0.06392,0.06392 0.06392,0.163352 z m 0.909091,3.181818 v -5.90909 q 0,-0.46875 -0.333807,-0.802557 -0.333807,-0.333807 -0.802557,-0.333807 h -5.90909 q -0.46875,0 -0.802557,0.333807 -0.333807,0.333807 -0.333807,0.802557 v 5.90909 q 0,0.46875 0.333807,0.802557 0.333807,0.333807 0.802557,0.333807 h 5.90909 q 0.46875,0 0.802557,-0.333807 0.333807,-0.333807 0.333807,-0.802557 z m 0.909091,-5.90909 v 5.90909 q 0,0.845171 -0.600142,1.445313 -0.600142,0.600142 -1.445313,0.600142 h -5.90909 q -0.845171,0 -1.445313,-0.600142 -0.600142,-0.600142 -0.600142,-1.445313 v -5.90909 q 0,-0.845171 0.600142,-1.445313 0.600142,-0.600142 1.445313,-0.600142 h 5.90909 q 0.845171,0 1.445313,0.600142 0.600142,0.600142 0.600142,1.445313 z" id="path824" style="stroke-width:0.00710226;fill:#B4B4B4" />
    <path d="m 42.727805,39.453881 v 0.45454 q 0,0.0994 -0.06392,0.16336 -0.06392,0.0639 -0.163353,0.0639 h -5.90909 q -0.09943,0 -0.163353,-0.0639 -0.06392,-0.0639 -0.06392,-0.16336 v -0.45454 q 0,-0.0994 0.06392,-0.16336 0.06392,-0.0639 0.163353,-0.0639 h 5.90909 q 0.09943,0 0.163353,0.0639 0.06392,0.0639 0.06392,0.16336 z m 0.909091,3.18182 v -5.9091 q 0,-0.46875 -0.333807,-0.80255 -0.333807,-0.33381 -0.802557,-0.33381 h -5.90909 q -0.46875,0 -0.802557,0.33381 -0.333807,0.3338 -0.333807,0.80255 v 5.9091 q 0,0.46875 0.333807,0.80255 0.333807,0.33381 0.802557,0.33381 h 5.90909 q 0.46875,0 0.802557,-0.33381 0.333807,-0.3338 0.333807,-0.80255 z m 0.909091,-5.9091 v 5.9091 q 0,0.84517 -0.600142,1.44531 -0.600142,0.60014 -1.445313,0.60014 h -5.90909 q -0.845171,0 -1.445313,-0.60014 -0.600142,-0.60014 -0.600142,-1.44531 v -5.9091 q 0,-0.84517 0.600142,-1.44531 0.600142,-0.60014 1.445313,-0.60014 h 5.90909 q 0.845171,0 1.445313,0.60014 0.600142,0.60014 0.600142,1.44531 z" id="path833" style="stroke-width:0.00710226;fill:#B4B4B4" /> </g>
</svg>
