<svg height="18.290051mm" viewBox="0 0 18.154884 18.290051" width="18.154884mm" xmlns="http://www.w3.org/2000/svg"><g stroke-width=".007102" transform="translate(-26.391102 -26.391101)"><path fill="currentColor" stroke="currentColor" d="m34.57292 31.163828v.454546q0 .09943-.06392.163352-.06392.06392-.163353.06392h-2.5v2.499999q0 .09943-.06392.163353-.06392.06392-.163352.06392h-.454546q-.09943 0-.163352-.06392-.06392-.06392-.06392-.163353v-2.499999h-2.5q-.09943 0-.163353-.06392-.06392-.06392-.06392-.163352v-.454546q0-.09943.06392-.163352.06392-.06392.163353-.06392h2.5v-2.5q0-.09943.06392-.163353.06392-.06392.163352-.06392h.454546q.09943 0 .163352.06392.06392.06392.06392.163353v2.5h2.5q.09943 0 .163353.06392.06392.06392.06392.163352zm.909091 3.181818v-5.90909q0-.46875-.333807-.802557-.333807-.333807-.802557-.333807h-5.90909q-.46875 0-.802557.333807-.333807.333807-.333807.802557v5.90909q0 .46875.333807.802557.333807.333807.802557.333807h5.90909q.46875 0 .802557-.333807.333807-.333807.333807-.802557zm.909091-5.90909v5.90909q0 .845171-.600142 1.445313-.600142.600142-1.445313.600142h-5.90909q-.845171 0-1.445313-.600142-.600142-.600142-.600142-1.445313v-5.90909q0-.845171.600142-1.445313.600142-.600142 1.445313-.600142h5.90909q.845171 0 1.445313.600142.600142.600142.600142 1.445313z"/><path fill="currentColor" stroke="currentColor" d="m42.727805 39.453881v.45454q0 .0994-.06392.16336-.06392.0639-.163353.0639h-5.90909q-.09943 0-.163353-.0639-.06392-.0639-.06392-.16336v-.45454q0-.0994.06392-.16336.06392-.0639.163353-.0639h5.90909q.09943 0 .163353.0639.06392.0639.06392.16336zm.909091 3.18182v-5.9091q0-.46875-.333807-.80255-.333807-.33381-.802557-.33381h-5.90909q-.46875 0-.802557.33381-.333807.3338-.333807.80255v5.9091q0 .46875.333807.80255.333807.33381.802557.33381h5.90909q.46875 0 .802557-.33381.333807-.3338.333807-.80255zm.909091-5.9091v5.9091q0 .84517-.600142 1.44531-.600142.60014-1.445313.60014h-5.90909q-.845171 0-1.445313-.60014-.600142-.60014-.600142-1.44531v-5.9091q0-.84517.600142-1.44531.600142-.60014 1.445313-.60014h5.90909q.845171 0 1.445313.60014.600142.60014.600142 1.44531z"/></g></svg>
